name Run_300 02_newCOP3_v24.mot
datacolumns 19
datarows 116
range 2.935 2.9925
DataType=double
version=3
OpenSimVersion=4.3-2021-08-27-4bc7ad9
endheader
time	R_ground_force_vx	R_ground_force_vy	R_ground_force_vz	R_ground_force_px	R_ground_force_py	R_ground_force_pz	L_ground_force_vx	L_ground_force_vy	L_ground_force_vz	L_ground_force_px	L_ground_force_py	L_ground_force_pz	R_ground_torque_x	R_ground_torque_y	R_ground_torque_z	L_ground_torque_x	L_ground_torque_y	L_ground_torque_z
2.935	-183.439926	1334.704346	-52.86795	1.288885	0	-0.299425	0	0	0	0	0	0	-0	3.300492	-0	0	0	0
2.9355	-185.15123	1343.469849	-52.773441	1.288387	0	-0.299458	0	0	0	0	0	0	-0	3.201272	-0	0	0	0
2.936	-186.772552	1352.296021	-52.662029	1.287878	0	-0.29949	0	0	0	0	0	0	-0	3.100065	-0	0	0	0
2.9365	-188.302505	1361.177734	-52.534851	1.287358	0	-0.299521	0	0	0	0	0	0	-0	2.996936	-0	0	0	0
2.937	-189.740036	1370.110107	-52.393082	1.286827	0	-0.299551	0	0	0	0	0	0	-0	2.891956	-0	0	0	0
2.9375	-191.084381	1379.087646	-52.23793	1.286284	0	-0.299581	0	0	0	0	0	0	-0	2.785195	-0	0	0	0
2.938	-192.335098	1388.104614	-52.070621	1.28573	0	-0.299609	0	0	0	0	0	0	-0	2.676725	-0	0	0	0
2.9385	-193.492065	1397.155518	-51.892406	1.285165	0	-0.299638	0	0	0	0	0	0	-0	2.566619	-0	0	0	0
2.939	-194.55542	1406.234253	-51.704548	1.284589	0	-0.299666	0	0	0	0	0	0	-0	2.454951	-0	0	0	0
2.9395	-195.525635	1415.334839	-51.508308	1.284001	0	-0.299694	0	0	0	0	0	0	-0	2.341798	-0	0	0	0
2.94	-196.403412	1424.451172	-51.304962	1.283403	0	-0.299722	0	0	0	0	0	0	-0	2.227236	-0	0	0	0
2.9405	-197.189743	1433.577026	-51.095768	1.282794	0	-0.299751	0	0	0	0	0	0	-0	2.111341	-0	0	0	0
2.941	-197.885864	1442.706055	-50.881969	1.282173	0	-0.29978	0	0	0	0	0	0	-0	1.994193	-0	0	0	0
2.9415	-198.493195	1451.832153	-50.664799	1.281542	0	-0.299809	0	0	0	0	0	0	-0	1.87587	-0	0	0	0
2.942	-199.013397	1460.948853	-50.445457	1.2809	0	-0.29984	0	0	0	0	0	0	-0	1.756451	-0	0	0	0
2.9425	-199.448273	1470.050049	-50.225117	1.280248	0	-0.299871	0	0	0	0	0	0	-0	1.636016	-0	0	0	0
2.943	-199.799805	1479.129639	-50.004917	1.279585	0	-0.299903	0	0	0	0	0	0	-0	1.514645	-0	0	0	0
2.9435	-200.070099	1488.181396	-49.785954	1.278912	0	-0.299937	0	0	0	0	0	0	-0	1.392418	-0	0	0	0
2.944	-200.261383	1497.199341	-49.569279	1.278228	0	-0.299971	0	0	0	0	0	0	-0	1.269415	-0	0	0	0
2.9445	-200.375946	1506.177612	-49.355896	1.277535	0	-0.300007	0	0	0	0	0	0	-0	1.145718	-0	0	0	0
2.945	-200.416183	1515.110474	-49.146751	1.276831	0	-0.300044	0	0	0	0	0	0	-0	1.021405	-0	0	0	0
2.9455	-200.384491	1523.992432	-48.942734	1.276118	0	-0.300082	0	0	0	0	0	0	-0	0.896557	-0	0	0	0
2.946	-200.283325	1532.818115	-48.744678	1.275395	0	-0.300122	0	0	0	0	0	0	-0	0.771254	-0	0	0	0
2.9465	-200.115128	1541.582275	-48.553352	1.274663	0	-0.300164	0	0	0	0	0	0	-0	0.645574	-0	0	0	0
2.947	-199.882355	1550.280151	-48.369457	1.273921	0	-0.300206	0	0	0	0	0	0	-0	0.519595	-0	0	0	0
2.9475	-199.587418	1558.90686	-48.193634	1.27317	0	-0.30025	0	0	0	0	0	0	-0	0.393397	-0	0	0	0
2.948	-199.232712	1567.458008	-48.026447	1.272411	0	-0.300295	0	0	0	0	0	0	-0	0.267055	-0	0	0	0
2.9485	-198.820587	1575.929443	-47.868393	1.271642	0	-0.300342	0	0	0	0	0	0	-0	0.140647	-0	0	0	0
2.949	-198.353317	1584.317139	-47.71991	1.270864	0	-0.300389	0	0	0	0	0	0	-0	0.014247	-0	0	0	0
2.9495	-197.83316	1592.617432	-47.581352	1.270078	0	-0.300438	0	0	0	0	0	0	0	-0.11207	0	0	0	0
2.95	-197.262283	1600.827026	-47.453018	1.269284	0	-0.300488	0	0	0	0	0	0	0	-0.238231	0	0	0	0
2.9505	-196.642792	1608.942749	-47.335125	1.268481	0	-0.300539	0	0	0	0	0	0	0	-0.364163	0	0	0	0
2.951	-195.9767	1616.961548	-47.227837	1.26767	0	-0.30059	0	0	0	0	0	0	0	-0.489797	0	0	0	0
2.9515	-195.265991	1624.881104	-47.131241	1.266851	0	-0.300642	0	0	0	0	0	0	0	-0.615063	0	0	0	0
2.952	-194.512573	1632.699097	-47.045376	1.266024	0	-0.300694	0	0	0	0	0	0	0	-0.739892	0	0	0	0
2.9525	-193.718262	1640.41333	-46.970207	1.265189	0	-0.300747	0	0	0	0	0	0	0	-0.864219	0	0	0	0
2.953	-192.884811	1648.022095	-46.905647	1.264346	0	-0.3008	0	0	0	0	0	0	0	-0.987978	0	0	0	0
2.9535	-192.013962	1655.523804	-46.851555	1.263496	0	-0.300853	0	0	0	0	0	0	0	-1.111107	0	0	0	0
2.954	-191.10733	1662.917358	-46.807739	1.262639	0	-0.300906	0	0	0	0	0	0	0	-1.233543	0	0	0	0
2.9545	-190.166519	1670.201416	-46.773956	1.261774	0	-0.300959	0	0	0	0	0	0	0	-1.355226	0	0	0	0
2.955	-189.193039	1677.375244	-46.74992	1.260902	0	-0.301011	0	0	0	0	0	0	0	-1.476099	0	0	0	0
2.9555	-188.1884	1684.43811	-46.73531	1.260023	0	-0.301062	0	0	0	0	0	0	0	-1.596105	0	0	0	0
2.956	-187.153992	1691.389648	-46.729755	1.259138	0	-0.301113	0	0	0	0	0	0	0	-1.71519	0	0	0	0
2.9565	-186.091232	1698.229614	-46.732864	1.258245	0	-0.301163	0	0	0	0	0	0	0	-1.833302	0	0	0	0
2.957	-185.001404	1704.957886	-46.744213	1.257346	0	-0.301213	0	0	0	0	0	0	0	-1.950389	0	0	0	0
2.9575	-183.885803	1711.574341	-46.763351	1.256441	0	-0.301261	0	0	0	0	0	0	0	-2.066404	0	0	0	0
2.958	-182.745621	1718.079346	-46.789806	1.25553	0	-0.301307	0	0	0	0	0	0	0	-2.1813	0	0	0	0
2.9585	-181.582047	1724.473022	-46.82309	1.254612	0	-0.301353	0	0	0	0	0	0	0	-2.295033	0	0	0	0
2.959	-180.396179	1730.755859	-46.862701	1.253689	0	-0.301397	0	0	0	0	0	0	0	-2.40756	0	0	0	0
2.9595	-179.189041	1736.928345	-46.908131	1.25276	0	-0.301439	0	0	0	0	0	0	0	-2.518841	0	0	0	0
2.96	-177.961624	1742.990967	-46.958858	1.251825	0	-0.30148	0	0	0	0	0	0	0	-2.628837	0	0	0	0
2.9605	-176.714828	1748.944458	-47.014366	1.250885	0	-0.30152	0	0	0	0	0	0	0	-2.737514	0	0	0	0
2.961	-175.449509	1754.789429	-47.074131	1.24994	0	-0.301557	0	0	0	0	0	0	0	-2.844836	0	0	0	0
2.9615	-174.166412	1760.526611	-47.13763	1.24899	0	-0.301593	0	0	0	0	0	0	0	-2.950772	0	0	0	0
2.962	-172.866226	1766.15686	-47.204361	1.248035	0	-0.301627	0	0	0	0	0	0	0	-3.055293	0	0	0	0
2.9625	-171.549545	1771.680908	-47.273808	1.247075	0	-0.30166	0	0	0	0	0	0	0	-3.158371	0	0	0	0
2.963	-170.216934	1777.099609	-47.345486	1.246111	0	-0.301691	0	0	0	0	0	0	0	-3.25998	0	0	0	0
2.9635	-168.868805	1782.413574	-47.418907	1.245143	0	-0.30172	0	0	0	0	0	0	0	-3.360098	0	0	0	0
2.964	-167.505524	1787.623901	-47.493607	1.24417	0	-0.301748	0	0	0	0	0	0	0	-3.458704	0	0	0	0
2.9645	-166.12738	1792.731201	-47.569126	1.243194	0	-0.301773	0	0	0	0	0	0	0	-3.555777	0	0	0	0
2.965	-164.734573	1797.736328	-47.645027	1.242213	0	-0.301798	0	0	0	0	0	0	0	-3.651302	0	0	0	0
2.9655	-163.32724	1802.640015	-47.720894	1.241229	0	-0.301821	0	0	0	0	0	0	0	-3.745264	0	0	0	0
2.966	-161.905441	1807.442993	-47.796322	1.240242	0	-0.301842	0	0	0	0	0	0	0	-3.83765	0	0	0	0
2.9665	-160.469162	1812.146118	-47.870922	1.239251	0	-0.301862	0	0	0	0	0	0	0	-3.928449	0	0	0	0
2.967	-159.018372	1816.749878	-47.944332	1.238257	0	-0.301881	0	0	0	0	0	0	0	-4.017653	0	0	0	0
2.9675	-157.552948	1821.255005	-48.016197	1.23726	0	-0.301899	0	0	0	0	0	0	0	-4.105255	0	0	0	0
2.968	-156.072739	1825.662231	-48.086189	1.23626	0	-0.301916	0	0	0	0	0	0	0	-4.19125	0	0	0	0
2.9685	-154.57756	1829.971924	-48.153996	1.235257	0	-0.301932	0	0	0	0	0	0	0	-4.275635	0	0	0	0
2.969	-153.06723	1834.184937	-48.219311	1.234252	0	-0.301948	0	0	0	0	0	0	0	-4.35841	0	0	0	0
2.9695	-151.541504	1838.301514	-48.28186	1.233244	0	-0.301963	0	0	0	0	0	0	0	-4.439575	0	0	0	0
2.97	-150.000198	1842.322388	-48.341373	1.232233	0	-0.301977	0	0	0	0	0	0	0	-4.519134	0	0	0	0
2.9705	-148.443085	1846.247803	-48.397598	1.23122	0	-0.301991	0	0	0	0	0	0	0	-4.59709	0	0	0	0
2.971	-146.869965	1850.078369	-48.450294	1.230204	0	-0.302004	0	0	0	0	0	0	0	-4.67345	0	0	0	0
2.9715	-145.280685	1853.814331	-48.499233	1.229187	0	-0.302018	0	0	0	0	0	0	0	-4.748223	0	0	0	0
2.972	-143.675095	1857.456299	-48.544197	1.228167	0	-0.302031	0	0	0	0	0	0	0	-4.821417	0	0	0	0
2.9725	-142.053085	1861.004395	-48.584984	1.227145	0	-0.302045	0	0	0	0	0	0	0	-4.893044	0	0	0	0
2.973	-140.414627	1864.458984	-48.621387	1.226121	0	-0.302058	0	0	0	0	0	0	0	-4.963118	0	0	0	0
2.9735	-138.759705	1867.820435	-48.653217	1.225095	0	-0.302072	0	0	0	0	0	0	0	-5.031652	0	0	0	0
2.974	-137.088364	1871.088989	-48.680294	1.224067	0	-0.302087	0	0	0	0	0	0	0	-5.098663	0	0	0	0
2.9745	-135.400726	1874.265015	-48.702435	1.223037	0	-0.302101	0	0	0	0	0	0	0	-5.164166	0	0	0	0
2.975	-133.696945	1877.348511	-48.719467	1.222006	0	-0.302117	0	0	0	0	0	0	0	-5.228183	0	0	0	0
2.9755	-131.977249	1880.339966	-48.731216	1.220972	0	-0.302133	0	0	0	0	0	0	0	-5.290732	0	0	0	0
2.976	-130.241898	1883.23938	-48.737522	1.219937	0	-0.302149	0	0	0	0	0	0	0	-5.351834	0	0	0	0
2.9765	-128.491211	1886.047119	-48.738216	1.2189	0	-0.302167	0	0	0	0	0	0	0	-5.411513	0	0	0	0
2.977	-126.725586	1888.763306	-48.733139	1.217862	0	-0.302185	0	0	0	0	0	0	0	-5.469791	0	0	0	0
2.9775	-124.945427	1891.388062	-48.72213	1.216822	0	-0.302204	0	0	0	0	0	0	0	-5.526694	0	0	0	0
2.978	-123.151184	1893.921753	-48.705036	1.21578	0	-0.302223	0	0	0	0	0	0	0	-5.582247	0	0	0	0
2.9785	-121.343346	1896.364258	-48.681694	1.214737	0	-0.302243	0	0	0	0	0	0	0	-5.636477	0	0	0	0
2.979	-119.522423	1898.715942	-48.651958	1.213692	0	-0.302264	0	0	0	0	0	0	0	-5.689413	0	0	0	0
2.9795	-117.688942	1900.976929	-48.615677	1.212646	0	-0.302286	0	0	0	0	0	0	0	-5.741082	0	0	0	0
2.98	-115.843437	1903.147339	-48.572697	1.211598	0	-0.302309	0	0	0	0	0	0	0	-5.791514	0	0	0	0
2.9805	-113.986458	1905.227295	-48.522877	1.210548	0	-0.302332	0	0	0	0	0	0	0	-5.840739	0	0	0	0
2.981	-112.11853	1907.216919	-48.466072	1.209497	0	-0.302356	0	0	0	0	0	0	0	-5.888789	0	0	0	0
2.9815	-110.240196	1909.116455	-48.402149	1.208445	0	-0.302381	0	0	0	0	0	0	0	-5.935694	0	0	0	0
2.982	-108.351952	1910.926025	-48.330971	1.207391	0	-0.302406	0	0	0	0	0	0	0	-5.981487	0	0	0	0
2.9825	-106.454292	1912.64563	-48.252411	1.206336	0	-0.302432	0	0	0	0	0	0	0	-6.026201	0	0	0	0
2.983	-104.547684	1914.275635	-48.166344	1.205279	0	-0.302458	0	0	0	0	0	0	0	-6.069869	0	0	0	0
2.9835	-102.632568	1915.815918	-48.072659	1.204221	0	-0.302485	0	0	0	0	0	0	0	-6.112525	0	0	0	0
2.984	-100.709335	1917.266846	-47.971249	1.203161	0	-0.302512	0	0	0	0	0	0	0	-6.154201	0	0	0	0
2.9845	-98.77836600000001	1918.628418	-47.862015	1.2021	0	-0.302539	0	0	0	0	0	0	0	-6.194934	0	0	0	0
2.985	-96.83998099999999	1919.900757	-47.744862	1.201037	0	-0.302567	0	0	0	0	0	0	0	-6.234757	0	0	0	0
2.9855	-94.894493	1921.083862	-47.619709	1.199973	0	-0.302595	0	0	0	0	0	0	0	-6.273705	0	0	0	0
2.986	-92.94214599999999	1922.178101	-47.486492	1.198908	0	-0.302623	0	0	0	0	0	0	0	-6.311812	0	0	0	0
2.9865	-90.983177	1923.18335	-47.345146	1.197841	0	-0.302652	0	0	0	0	0	0	0	-6.349115	0	0	0	0
2.987	-89.017776	1924.099854	-47.195625	1.196772	0	-0.30268	0	0	0	0	0	0	0	-6.385648	0	0	0	0
2.9875	-87.04611199999999	1924.92749	-47.037891	1.195703	0	-0.302708	0	0	0	0	0	0	0	-6.421445	0	0	0	0
2.988	-85.068314	1925.666504	-46.871918	1.194631	0	-0.302737	0	0	0	0	0	0	0	-6.456542	0	0	0	0
2.9885	-83.084503	1926.316772	-46.697689	1.193559	0	-0.302765	0	0	0	0	0	0	0	-6.490974	0	0	0	0
2.989	-81.094765	1926.878418	-46.515209	1.192485	0	-0.302794	0	0	0	0	0	0	0	-6.524775	0	0	0	0
2.9895	-79.09916699999999	1927.35144	-46.324482	1.19141	0	-0.302822	0	0	0	0	0	0	0	-6.557979	0	0	0	0
2.99	-77.09777800000001	1927.735718	-46.125538	1.190333	0	-0.302851	0	0	0	0	0	0	0	-6.59062	0	0	0	0
2.9905	-75.090637	1928.03125	-45.918404	1.189255	0	-0.302879	0	0	0	0	0	0	0	-6.622733	0	0	0	0
2.991	-73.077805	1928.237915	-45.703125	1.188177	0	-0.302908	0	0	0	0	0	0	0	-6.65435	0	0	0	0
2.9915	-71.059303	1928.355713	-45.479755	1.187096	0	-0.302936	0	0	0	0	0	0	0	-6.685505	0	0	0	0
2.992	-69.035172	1928.384399	-45.248363	1.186015	0	-0.302965	0	0	0	0	0	0	0	-6.716229	0	0	0	0
2.9925	-67.00546300000001	1928.323853	-45.009022	1.184932	0	-0.302993	0	0	0	0	0	0	0	-6.746557	0	0	0	0
